<svg xmlns="http://www.w3.org/2000/svg" viewBox="0 0 64 64" width="64" height="64">
  <circle cx="32" cy="32" r="32" fill="#6C3FC5"/>
  <!-- Lightbulb icon suggesting AI + education -->
  <path d="M32 12c-7.18 0-13 5.82-13 13 0 4.8 2.6 9 6.5 11.3V40a1 1 0 001 1h11a1 1 0 001-1v-3.7C42.4 34 45 29.8 45 25c0-7.18-5.82-13-13-13z" fill="white" opacity="0.95"/>
  <rect x="25.5" y="42" width="13" height="2.5" rx="1.25" fill="white" opacity="0.8"/>
  <rect x="27" y="46" width="10" height="2.5" rx="1.25" fill="white" opacity="0.6"/>
  <!-- spark lines -->
  <line x1="32" y1="8" x2="32" y2="5" stroke="white" stroke-width="2" stroke-linecap="round" opacity="0.6"/>
  <line x1="46" y1="14" x2="48.1" y2="11.9" stroke="white" stroke-width="2" stroke-linecap="round" opacity="0.6"/>
  <line x1="18" y1="14" x2="15.9" y2="11.9" stroke="white" stroke-width="2" stroke-linecap="round" opacity="0.6"/>
  <line x1="50" y1="25" x2="53" y2="25" stroke="white" stroke-width="2" stroke-linecap="round" opacity="0.6"/>
  <line x1="14" y1="25" x2="11" y2="25" stroke="white" stroke-width="2" stroke-linecap="round" opacity="0.6"/>
</svg>
